<svg width="32" height="32" viewBox="0 0 32 32" fill="none" xmlns="http://www.w3.org/2000/svg">
<g clip-path="url(#clip0_8_14)">
<path d="M31.6094 29.724L23.6507 21.7653C25.8196 19.1128 26.8859 15.7281 26.6292 12.3114C26.3725 8.89471 24.8124 5.70738 22.2715 3.4087C19.7307 1.11002 16.4035 -0.124143 12.9783 -0.0385001C9.553 0.0471423 6.29168 1.44603 3.86889 3.86882C1.44611 6.2916 0.0472167 9.55292 -0.0384257 12.9782C-0.124068 16.4035 1.11009 19.7306 3.40877 22.2714C5.70745 24.8123 8.89478 26.3724 12.3115 26.6291C15.7282 26.8858 19.1129 25.8195 21.7654 23.6507L29.7241 31.6093C29.9755 31.8522 30.3123 31.9866 30.6619 31.9836C31.0115 31.9805 31.346 31.8403 31.5932 31.5931C31.8404 31.3459 31.9806 31.0115 31.9836 30.6619C31.9867 30.3123 31.8523 29.9755 31.6094 29.724ZM13.3334 24C11.2237 24 9.16145 23.3744 7.40733 22.2023C5.6532 21.0303 4.28603 19.3644 3.47869 17.4153C2.67136 15.4662 2.46012 13.3215 2.8717 11.2524C3.28327 9.18324 4.29918 7.28262 5.79094 5.79086C7.2827 4.2991 9.18331 3.2832 11.2524 2.87162C13.3216 2.46005 15.4663 2.67128 17.4154 3.47862C19.3644 4.28595 21.0303 5.65313 22.2024 7.40725C23.3745 9.16138 24.0001 11.2237 24.0001 13.3333C23.9969 16.1613 22.8721 18.8726 20.8724 20.8723C18.8727 22.872 16.1614 23.9968 13.3334 24Z" fill="black"/>
</g>
<defs>
<clipPath id="clip0_8_14">
<rect width="32" height="32" fill="white"/>
</clipPath>
</defs>
</svg>
